<?xml version="1.0" encoding="UTF-8" standalone="no"?>
<!-- Generator: Adobe Illustrator 26.0.3, SVG Export Plug-In . SVG Version: 6.00 Build 0)  -->

<svg
   xmlns:dc="http://purl.org/dc/elements/1.1/"
   xmlns:cc="http://creativecommons.org/ns#"
   xmlns:rdf="http://www.w3.org/1999/02/22-rdf-syntax-ns#"
   xmlns:svg="http://www.w3.org/2000/svg"
   xmlns="http://www.w3.org/2000/svg"
   xmlns:sodipodi="http://sodipodi.sourceforge.net/DTD/sodipodi-0.dtd"
   xmlns:inkscape="http://www.inkscape.org/namespaces/inkscape"
   version="1.1"
   x="0px"
   y="0px"
   viewBox="0 0 230.89999 184.8"
   xml:space="preserve"
   id="svg998"
   sodipodi:docname="CPQ_white.svg"
   width="230.89999"
   height="184.8"
   inkscape:version="0.92.4 (5da689c313, 2019-01-14)"><metadata
   id="metadata1004"><rdf:RDF><cc:Work
       rdf:about=""><dc:format>image/svg+xml</dc:format><dc:type
         rdf:resource="http://purl.org/dc/dcmitype/StillImage" /><dc:title></dc:title></cc:Work></rdf:RDF></metadata><defs
   id="defs1002" /><sodipodi:namedview
   pagecolor="#ffffff"
   bordercolor="#666666"
   borderopacity="1"
   objecttolerance="10"
   gridtolerance="10"
   guidetolerance="10"
   inkscape:pageopacity="0"
   inkscape:pageshadow="2"
   inkscape:window-width="2999"
   inkscape:window-height="1927"
   id="namedview1000"
   showgrid="false"
   fit-margin-top="0"
   fit-margin-left="0"
   fit-margin-right="0"
   fit-margin-bottom="0"
   inkscape:zoom="4.4555556"
   inkscape:cx="115"
   inkscape:cy="92.4"
   inkscape:window-x="1"
   inkscape:window-y="37"
   inkscape:window-maximized="1"
   inkscape:current-layer="svg998" />
<style
   type="text/css"
   id="style987">
	.st0{fill:#231F20;}
</style>
<g
   id="Layer_1"
   transform="translate(-65,-87.6)"
   style="fill:#ffffff">
	<polygon
   class="st0"
   points="65,180 116.9,87.6 157.3,87.6 157.3,108.1 128.5,108.1 88.1,180 128.5,251.8 157.3,251.8 157.3,272.3 116.9,272.3 "
   id="polygon989"
   style="fill:#ffffff" />
</g>
<g
   id="Layer_2"
   transform="translate(-65,-87.6)"
   style="fill:#ffffff">
	<polygon
   class="st0"
   points="193.1,213.3 212.2,180.1 193.1,147 157.3,147 157.3,129.8 203,129.8 232.1,180.1 203,230.5 178.3,230.5 178.3,272.4 157.3,272.4 157.3,213.3 "
   id="polygon992"
   style="fill:#ffffff" />
</g>
<g
   id="Layer_3"
   transform="translate(-65,-87.6)"
   style="fill:#ffffff">
	<polygon
   class="st0"
   points="272.8,180 232.4,108.1 203.6,108.1 203.6,87.6 244,87.6 295.9,180 255.5,251.8 295.9,251.8 295.9,272.3 203.6,272.3 203.6,251.8 232.4,251.8 "
   id="polygon995"
   style="fill:#ffffff" />
</g>
</svg>
