<?xml version="1.0" encoding="utf-8"?>
<!-- Generator: Adobe Illustrator 26.0.3, SVG Export Plug-In . SVG Version: 6.00 Build 0)  -->
<svg version="1.1" xmlns="http://www.w3.org/2000/svg" xmlns:xlink="http://www.w3.org/1999/xlink" x="0px" y="0px"
	 viewBox="0 0 360 360" style="enable-background:new 0 0 360 360;" xml:space="preserve">
<style type="text/css">
	.st0{fill:#231F20;}
</style>
<g id="Layer_1">
	<polygon class="st0" points="128.5,108.1 88.1,180 128.5,251.8 157.3,251.8 157.3,272.3 116.9,272.3 65,180 116.9,87.6 157.3,87.6
		157.3,108.1 	"/>
</g>
<g id="Layer_2">
	<polygon class="st0" points="232.1,180.1 203,230.5 178.3,230.5 178.3,272.4 157.3,272.4 157.3,213.3 193.1,213.3 212.2,180.1
		193.1,147 157.3,147 157.3,129.8 203,129.8 	"/>
</g>
<g id="Layer_3">
	<polygon class="st0" points="255.5,251.8 295.9,251.8 295.9,272.3 203.6,272.3 203.6,251.8 232.4,251.8 272.8,180 232.4,108.1
		203.6,108.1 203.6,87.6 244,87.6 295.9,180 	"/>
</g>
</svg>
